<svg version="1.2" xmlns="http://www.w3.org/2000/svg" viewBox="0 0 193 193" width="193" height="193">
	<title>nfl-svg</title>
	<style>
		.s0 { fill: #000000 } 
	</style>
	<g id="Layer">
		<path id="Layer" fill-rule="evenodd" class="s0" d="m85.4 148.9c0 1.2 0 4-1.8 4.9-1.8 0.9-2.2 2-2 2.7 0.2 0.8 1 1.6 2.4 2 1.5 0.5 4.2 1.4 12.2 7.2 1.4 0.9 2.8 0.3 3.3-0.2 0.4-0.5 0.6-2-0.6-3.4-1.2-1.5-2.6-3.8-2.6-7.2v-33.4h8.2c2 0 3.9 0.5 4.6 3.9 0.5 2.3 3.6 2.6 3.6 0.2v-18c0-2-3.5-1.8-3.9 0.2-0.5 1.9-0.5 5.4-3.2 5.4h-9.3v-18.1h10.1c1.5 0 3 0.6 3.9 1.8 0.9 1.3 3.7 4.6 5.6 3.8 0.9-0.4 1.3-1.3 0.9-3l-4.2-11.4h-29c-1.8 0-2.7 0.7-2.9 1.5-0.2 0.8 0.4 2.3 1.6 2.9 1.3 0.7 3.1 1.9 3.1 4.8z"/>
		<path id="Layer" fill-rule="evenodd" class="s0" d="m121.4 141.3c0 1.3 0 4.3-1.8 5.7-1.7 1.5-6.1 5.6-4.3 8.1 0.8 1 2.7 0.7 5.2-0.2 2.6-0.9 9.9-1.1 12.6-1 2.7 0 15.4 2.4 20.4-12.7 3.4-10.4-1.3-22.7-10.6-22.9-5.3 0-7.9 2.6-8.4 6.5-0.4 3.9 2.7 9.6 9.4 8.5 1.9-0.3 2.4 0.3 2.4 1.8 0 1.5-0.6 10.8-9.3 10.8-1.5 0-3.6 0.1-4.6 0.1v-49.3c0-2.3 2.8-5.5 4.6-6.8 1.5-0.9 1.4-3.6-0.3-3.6h-19.2c-1.3 0-2.5 1.5-0.7 3.4 1.8 1.8 4.6 3.3 4.6 7.4zm34.9 31.3h2.2v5.9h0.9v-5.9h2.3v-0.8h-5.4zm12.6 5.9v-6.7h-1.3l-1.9 5.7-1.9-5.7h-1.3v6.7h0.9v-3.9c0-0.2 0-1.1 0-1.7l1.9 5.6h0.9l1.9-5.6c0 0.6 0 1.5 0 1.7v3.9zm-129.9-92.2c-1.4 0-2.7 0.7-3 1.8-0.2 1 0 2.5 1.4 3.2 1.5 0.6 3.6 1.8 3.6 5.2v40c0 1.5-0.2 3.6-2.2 3.4-2.1-0.3-2.6 0.7-2.7 1.3-0.1 0.6 0.3 4.8 6.2 8.7 1.9 1.3 7.5 4.9 9.7 3.1 1.1-0.8 0-4.6-1.1-5.9-1.1-1.2-1.8-2.8-1.8-4.9v-31.4l15.4 40.3c1.1 2.7 4.5 5.3 7 4.5 2.5-0.9 2.9-2.8 2.9-4.4v-55.7c0-1.6 0.1-3.1 3.2-4.8 1.6-0.7 2.2-4.4-0.6-4.4h-16.1c-1.9 0-3.1 2.4-1.3 3.8 1.8 1.4 5.5 3.2 5.5 6.2v25.9l-12.1-31.3c-1-2.4-2.7-4.6-4.5-4.6h-9.5z"/>
	</g>
</svg>